<?xml version="1.0" encoding="UTF-8" standalone="no"?><svg xmlns="http://www.w3.org/2000/svg" xmlns:xlink="http://www.w3.org/1999/xlink" contentScriptType="application/ecmascript" contentStyleType="text/css" height="896px" preserveAspectRatio="none" style="width:650px;height:896px;" version="1.1" viewBox="0 0 650 896" width="650px" zoomAndPan="magnify"><defs><filter height="300%" id="fyq8k925to3ra" width="300%" x="-1" y="-1"><feGaussianBlur result="blurOut" stdDeviation="2.0"/><feColorMatrix in="blurOut" result="blurOut2" type="matrix" values="0 0 0 0 0 0 0 0 0 0 0 0 0 0 0 0 0 0 .4 0"/><feOffset dx="4.0" dy="4.0" in="blurOut2" result="blurOut3"/><feBlend in="SourceGraphic" in2="blurOut3" mode="normal"/></filter></defs><g><rect fill="none" height="51.9063" rx="7.5" ry="7.5" style="stroke:#FF0000;stroke-width:2.0;" width="175" x="233.75" y="14"/><text fill="#000000" font-family="sans-serif" font-size="18" lengthAdjust="spacingAndGlyphs" textLength="158" x="242.25" y="35.708">Asset-backed Bond</text><text fill="#000000" font-family="sans-serif" font-size="18" lengthAdjust="spacingAndGlyphs" textLength="159" x="241.75" y="56.6611">example workflows</text><line style="stroke:#A80036;stroke-width:1.0;stroke-dasharray:5.0,5.0;" x1="37" x2="37" y1="159.2031" y2="812.5938"/><line style="stroke:#A80036;stroke-width:1.0;stroke-dasharray:5.0,5.0;" x1="102" x2="102" y1="159.2031" y2="812.5938"/><line style="stroke:#A80036;stroke-width:1.0;stroke-dasharray:5.0,5.0;" x1="352.5" x2="352.5" y1="159.2031" y2="812.5938"/><line style="stroke:#A80036;stroke-width:1.0;stroke-dasharray:5.0,5.0;" x1="608.5" x2="608.5" y1="159.2031" y2="812.5938"/><text fill="#000000" font-family="sans-serif" font-size="14" lengthAdjust="spacingAndGlyphs" textLength="58" x="5" y="155.9014">Borrower</text><ellipse cx="37" cy="85.9063" fill="#FEFECE" filter="url(#fyq8k925to3ra)" rx="8" ry="8" style="stroke:#A80036;stroke-width:2.0;"/><path d="M37,93.9063 L37,120.9063 M24,101.9063 L50,101.9063 M37,120.9063 L24,135.9063 M37,120.9063 L50,135.9063 " fill="none" filter="url(#fyq8k925to3ra)" style="stroke:#A80036;stroke-width:2.0;"/><text fill="#000000" font-family="sans-serif" font-size="14" lengthAdjust="spacingAndGlyphs" textLength="58" x="5" y="824.5889">Borrower</text><ellipse cx="37" cy="837.8906" fill="#FEFECE" filter="url(#fyq8k925to3ra)" rx="8" ry="8" style="stroke:#A80036;stroke-width:2.0;"/><path d="M37,845.8906 L37,872.8906 M24,853.8906 L50,853.8906 M37,872.8906 L24,887.8906 M37,872.8906 L50,887.8906 " fill="none" filter="url(#fyq8k925to3ra)" style="stroke:#A80036;stroke-width:2.0;"/><text fill="#000000" font-family="sans-serif" font-size="14" lengthAdjust="spacingAndGlyphs" textLength="40" x="79" y="155.9014">Issuer</text><ellipse cx="102" cy="85.9063" fill="#FEFECE" filter="url(#fyq8k925to3ra)" rx="8" ry="8" style="stroke:#A80036;stroke-width:2.0;"/><path d="M102,93.9063 L102,120.9063 M89,101.9063 L115,101.9063 M102,120.9063 L89,135.9063 M102,120.9063 L115,135.9063 " fill="none" filter="url(#fyq8k925to3ra)" style="stroke:#A80036;stroke-width:2.0;"/><text fill="#000000" font-family="sans-serif" font-size="14" lengthAdjust="spacingAndGlyphs" textLength="40" x="79" y="824.5889">Issuer</text><ellipse cx="102" cy="837.8906" fill="#FEFECE" filter="url(#fyq8k925to3ra)" rx="8" ry="8" style="stroke:#A80036;stroke-width:2.0;"/><path d="M102,845.8906 L102,872.8906 M89,853.8906 L115,853.8906 M102,872.8906 L89,887.8906 M102,872.8906 L115,887.8906 " fill="none" filter="url(#fyq8k925to3ra)" style="stroke:#A80036;stroke-width:2.0;"/><rect fill="#FEFECE" filter="url(#fyq8k925to3ra)" height="30.2969" style="stroke:#A80036;stroke-width:1.5;" width="137" x="282.5" y="123.9063"/><text fill="#000000" font-family="sans-serif" font-size="14" lengthAdjust="spacingAndGlyphs" textLength="123" x="289.5" y="143.9014">Asset-backed Bond</text><rect fill="#FEFECE" filter="url(#fyq8k925to3ra)" height="30.2969" style="stroke:#A80036;stroke-width:1.5;" width="137" x="282.5" y="811.5938"/><text fill="#000000" font-family="sans-serif" font-size="14" lengthAdjust="spacingAndGlyphs" textLength="123" x="289.5" y="831.5889">Asset-backed Bond</text><text fill="#000000" font-family="sans-serif" font-size="14" lengthAdjust="spacingAndGlyphs" textLength="53" x="579.5" y="155.9014">Investor</text><ellipse cx="609" cy="85.9063" fill="#FEFECE" filter="url(#fyq8k925to3ra)" rx="8" ry="8" style="stroke:#A80036;stroke-width:2.0;"/><path d="M609,93.9063 L609,120.9063 M596,101.9063 L622,101.9063 M609,120.9063 L596,135.9063 M609,120.9063 L622,135.9063 " fill="none" filter="url(#fyq8k925to3ra)" style="stroke:#A80036;stroke-width:2.0;"/><text fill="#000000" font-family="sans-serif" font-size="14" lengthAdjust="spacingAndGlyphs" textLength="53" x="579.5" y="824.5889">Investor</text><ellipse cx="609" cy="837.8906" fill="#FEFECE" filter="url(#fyq8k925to3ra)" rx="8" ry="8" style="stroke:#A80036;stroke-width:2.0;"/><path d="M609,845.8906 L609,872.8906 M596,853.8906 L622,853.8906 M609,872.8906 L596,887.8906 M609,872.8906 L622,887.8906 " fill="none" filter="url(#fyq8k925to3ra)" style="stroke:#A80036;stroke-width:2.0;"/><rect fill="#EEEEEE" filter="url(#fyq8k925to3ra)" height="3" style="stroke:#EEEEEE;stroke-width:1.0;" width="643.5" x="0" y="189.7695"/><line style="stroke:#000000;stroke-width:1.0;" x1="0" x2="643.5" y1="189.7695" y2="189.7695"/><line style="stroke:#000000;stroke-width:1.0;" x1="0" x2="643.5" y1="192.7695" y2="192.7695"/><rect fill="#EEEEEE" filter="url(#fyq8k925to3ra)" height="23.1328" style="stroke:#000000;stroke-width:2.0;" width="69" x="287.25" y="179.2031"/><text fill="#000000" font-family="sans-serif" font-size="13" font-weight="bold" lengthAdjust="spacingAndGlyphs" textLength="55" x="293.25" y="195.27">issuance</text><polygon fill="#A80036" points="341,229.4688,351,233.4688,341,237.4688,345,233.4688" style="stroke:#A80036;stroke-width:1.0;"/><line style="stroke:#A80036;stroke-width:1.0;" x1="102" x2="347" y1="233.4688" y2="233.4688"/><text fill="#000000" font-family="sans-serif" font-size="13" lengthAdjust="spacingAndGlyphs" textLength="71" x="109" y="228.4028">issues bond</text><rect fill="#EEEEEE" filter="url(#fyq8k925to3ra)" height="3" style="stroke:#EEEEEE;stroke-width:1.0;" width="643.5" x="0" y="262.0352"/><line style="stroke:#000000;stroke-width:1.0;" x1="0" x2="643.5" y1="262.0352" y2="262.0352"/><line style="stroke:#000000;stroke-width:1.0;" x1="0" x2="643.5" y1="265.0352" y2="265.0352"/><rect fill="#EEEEEE" filter="url(#fyq8k925to3ra)" height="23.1328" style="stroke:#000000;stroke-width:2.0;" width="87" x="278.25" y="251.4688"/><text fill="#000000" font-family="sans-serif" font-size="13" font-weight="bold" lengthAdjust="spacingAndGlyphs" textLength="73" x="284.25" y="267.5356">investment</text><polygon fill="#A80036" points="364,301.7344,354,305.7344,364,309.7344,360,305.7344" style="stroke:#A80036;stroke-width:1.0;"/><line style="stroke:#A80036;stroke-width:1.0;" x1="358" x2="608" y1="305.7344" y2="305.7344"/><text fill="#000000" font-family="sans-serif" font-size="13" lengthAdjust="spacingAndGlyphs" textLength="169" x="370" y="300.6685">invests capital, on a schedule</text><polygon fill="#A80036" points="48,330.8672,38,334.8672,48,338.8672,44,334.8672" style="stroke:#A80036;stroke-width:1.0;"/><line style="stroke:#A80036;stroke-width:1.0;" x1="42" x2="352" y1="334.8672" y2="334.8672"/><text fill="#000000" font-family="sans-serif" font-size="13" lengthAdjust="spacingAndGlyphs" textLength="153" x="54" y="329.8013">releases capital as needed</text><rect fill="#EEEEEE" filter="url(#fyq8k925to3ra)" height="3" style="stroke:#EEEEEE;stroke-width:1.0;" width="643.5" x="0" y="363.4336"/><line style="stroke:#000000;stroke-width:1.0;" x1="0" x2="643.5" y1="363.4336" y2="363.4336"/><line style="stroke:#000000;stroke-width:1.0;" x1="0" x2="643.5" y1="366.4336" y2="366.4336"/><rect fill="#EEEEEE" filter="url(#fyq8k925to3ra)" height="23.1328" style="stroke:#000000;stroke-width:2.0;" width="63" x="290.25" y="352.8672"/><text fill="#000000" font-family="sans-serif" font-size="13" font-weight="bold" lengthAdjust="spacingAndGlyphs" textLength="49" x="296.25" y="368.9341">running</text><polygon fill="#A80036" points="341,403.1328,351,407.1328,341,411.1328,345,407.1328" style="stroke:#A80036;stroke-width:1.0;"/><line style="stroke:#A80036;stroke-width:1.0;" x1="37" x2="347" y1="407.1328" y2="407.1328"/><text fill="#000000" font-family="sans-serif" font-size="13" lengthAdjust="spacingAndGlyphs" textLength="69" x="44" y="402.0669">create asset</text><line style="stroke:#A80036;stroke-width:1.0;" x1="353" x2="395" y1="436.2656" y2="436.2656"/><line style="stroke:#A80036;stroke-width:1.0;" x1="395" x2="395" y1="436.2656" y2="449.2656"/><line style="stroke:#A80036;stroke-width:1.0;" x1="354" x2="395" y1="449.2656" y2="449.2656"/><polygon fill="#A80036" points="364,445.2656,354,449.2656,364,453.2656,360,449.2656" style="stroke:#A80036;stroke-width:1.0;"/><text fill="#000000" font-family="sans-serif" font-size="13" lengthAdjust="spacingAndGlyphs" textLength="242" x="360" y="431.1997">create revenue stream (leasing payments)</text><polygon fill="#A80036" points="341,474.3984,351,478.3984,341,482.3984,345,478.3984" style="stroke:#A80036;stroke-width:1.0;"/><line style="stroke:#A80036;stroke-width:1.0;" x1="37" x2="347" y1="478.3984" y2="478.3984"/><text fill="#000000" font-family="sans-serif" font-size="13" lengthAdjust="spacingAndGlyphs" textLength="220" x="44" y="473.3325">revenue stream payments (eg leasing)</text><polygon fill="#A80036" points="597,503.5313,607,507.5313,597,511.5313,601,507.5313" style="stroke:#A80036;stroke-width:1.0;"/><line style="stroke:#A80036;stroke-width:1.0;" x1="353" x2="603" y1="507.5313" y2="507.5313"/><text fill="#000000" font-family="sans-serif" font-size="13" lengthAdjust="spacingAndGlyphs" textLength="190" x="360" y="502.4653">amortisation payment (principal)</text><polygon fill="#A80036" points="597,532.6641,607,536.6641,597,540.6641,601,536.6641" style="stroke:#A80036;stroke-width:1.0;"/><line style="stroke:#A80036;stroke-width:1.0;" x1="353" x2="603" y1="536.6641" y2="536.6641"/><text fill="#000000" font-family="sans-serif" font-size="13" lengthAdjust="spacingAndGlyphs" textLength="155" x="360" y="531.5981">coupon payment (interest)</text><rect fill="#EEEEEE" filter="url(#fyq8k925to3ra)" height="3" style="stroke:#EEEEEE;stroke-width:1.0;" width="643.5" x="0" y="565.2305"/><line style="stroke:#000000;stroke-width:1.0;" x1="0" x2="643.5" y1="565.2305" y2="565.2305"/><line style="stroke:#000000;stroke-width:1.0;" x1="0" x2="643.5" y1="568.2305" y2="568.2305"/><rect fill="#EEEEEE" filter="url(#fyq8k925to3ra)" height="23.1328" style="stroke:#000000;stroke-width:2.0;" width="128" x="257.75" y="554.6641"/><text fill="#000000" font-family="sans-serif" font-size="13" font-weight="bold" lengthAdjust="spacingAndGlyphs" textLength="114" x="263.75" y="570.731">early termination</text><polygon fill="#A80036" points="341,604.9297,351,608.9297,341,612.9297,345,608.9297" style="stroke:#A80036;stroke-width:1.0;"/><line style="stroke:#A80036;stroke-width:1.0;" x1="37" x2="347" y1="608.9297" y2="608.9297"/><text fill="#000000" font-family="sans-serif" font-size="13" lengthAdjust="spacingAndGlyphs" textLength="292" x="44" y="603.8638">early termination (w/ optional insurance payment)</text><line style="stroke:#A80036;stroke-width:1.0;" x1="353" x2="395" y1="638.0625" y2="638.0625"/><line style="stroke:#A80036;stroke-width:1.0;" x1="395" x2="395" y1="638.0625" y2="651.0625"/><line style="stroke:#A80036;stroke-width:1.0;" x1="354" x2="395" y1="651.0625" y2="651.0625"/><polygon fill="#A80036" points="364,647.0625,354,651.0625,364,655.0625,360,651.0625" style="stroke:#A80036;stroke-width:1.0;"/><text fill="#000000" font-family="sans-serif" font-size="13" lengthAdjust="spacingAndGlyphs" textLength="236" x="360" y="632.9966">cancel unpaid revenue stream payments</text><polygon fill="#A80036" points="597,676.1953,607,680.1953,597,684.1953,601,680.1953" style="stroke:#A80036;stroke-width:1.0;"/><line style="stroke:#A80036;stroke-width:1.0;" x1="353" x2="603" y1="680.1953" y2="680.1953"/><text fill="#000000" font-family="sans-serif" font-size="13" lengthAdjust="spacingAndGlyphs" textLength="112" x="360" y="675.1294">insurance payment</text><rect fill="#EEEEEE" filter="url(#fyq8k925to3ra)" height="3" style="stroke:#EEEEEE;stroke-width:1.0;" width="643.5" x="0" y="708.7617"/><line style="stroke:#000000;stroke-width:1.0;" x1="0" x2="643.5" y1="708.7617" y2="708.7617"/><line style="stroke:#000000;stroke-width:1.0;" x1="0" x2="643.5" y1="711.7617" y2="711.7617"/><rect fill="#EEEEEE" filter="url(#fyq8k925to3ra)" height="23.1328" style="stroke:#000000;stroke-width:2.0;" width="61" x="291.25" y="698.1953"/><text fill="#000000" font-family="sans-serif" font-size="13" font-weight="bold" lengthAdjust="spacingAndGlyphs" textLength="47" x="297.25" y="714.2622">default</text><polygon fill="#A80036" points="341,748.4609,351,752.4609,341,756.4609,345,752.4609" style="stroke:#A80036;stroke-width:1.0;"/><line style="stroke:#A80036;stroke-width:1.0;" x1="37" x2="347" y1="752.4609" y2="752.4609"/><text fill="#000000" font-family="sans-serif" font-size="13" lengthAdjust="spacingAndGlyphs" textLength="41" x="44" y="747.395">default</text><line style="stroke:#A80036;stroke-width:1.0;" x1="353" x2="395" y1="781.5938" y2="781.5938"/><line style="stroke:#A80036;stroke-width:1.0;" x1="395" x2="395" y1="781.5938" y2="794.5938"/><line style="stroke:#A80036;stroke-width:1.0;" x1="354" x2="395" y1="794.5938" y2="794.5938"/><polygon fill="#A80036" points="364,790.5938,354,794.5938,364,798.5938,360,794.5938" style="stroke:#A80036;stroke-width:1.0;"/><text fill="#000000" font-family="sans-serif" font-size="13" lengthAdjust="spacingAndGlyphs" textLength="236" x="360" y="776.5278">cancel unpaid revenue stream payments</text><!--MD5=[f97672b6e53539ff45cfeeb5d1b8de21]
@startuml

skinparam titleBorderRoundCorner 15
skinparam titleBorderThickness 2
skinparam titleBorderColor red
title Asset-backed Bond\nexample workflows

actor Borrower
actor Issuer
participant "Asset-backed Bond" as Bond
actor Investor

==issuance==
Issuer -> Bond: issues bond

==investment==
Investor -> Bond: invests capital, on a schedule
Borrower <- Bond: releases capital as needed

==running== 
Borrower -> Bond: create asset
Bond -> Bond : create revenue stream (leasing payments)
Borrower -> Bond : revenue stream payments (eg leasing)
Bond -> Investor: amortisation payment (principal)
Bond -> Investor: coupon payment (interest)

==early termination==
Borrower -> Bond: early termination (w/ optional insurance payment)
Bond -> Bond : cancel unpaid revenue stream payments
Bond -> Investor: insurance payment

==default==
Borrower -> Bond: default
Bond -> Bond : cancel unpaid revenue stream payments

@enduml

PlantUML version 1.2020.23(Sun Dec 13 19:14:58 GMT 2020)
(GPL source distribution)
Java Runtime: OpenJDK Runtime Environment
JVM: OpenJDK 64-Bit Server VM
Default Encoding: UTF-8
Language: en
Country: US
--></g></svg>