<?xml version="1.0" encoding="UTF-8" standalone="no"?><svg xmlns="http://www.w3.org/2000/svg" xmlns:xlink="http://www.w3.org/1999/xlink" contentScriptType="application/ecmascript" contentStyleType="text/css" height="683px" preserveAspectRatio="none" style="width:379px;height:683px;" version="1.1" viewBox="0 0 379 683" width="379px" zoomAndPan="magnify"><defs><filter height="300%" id="fyufis9ljl5mo" width="300%" x="-1" y="-1"><feGaussianBlur result="blurOut" stdDeviation="2.0"/><feColorMatrix in="blurOut" result="blurOut2" type="matrix" values="0 0 0 0 0 0 0 0 0 0 0 0 0 0 0 0 0 0 .4 0"/><feOffset dx="4.0" dy="4.0" in="blurOut2" result="blurOut3"/><feBlend in="SourceGraphic" in2="blurOut3" mode="normal"/></filter></defs><g><rect fill="none" height="51.9063" rx="7.5" ry="7.5" style="stroke:#FF0000;stroke-width:2.0;" width="175" x="98" y="14"/><text fill="#000000" font-family="sans-serif" font-size="18" lengthAdjust="spacingAndGlyphs" textLength="43" x="164" y="35.708">Bond</text><text fill="#000000" font-family="sans-serif" font-size="18" lengthAdjust="spacingAndGlyphs" textLength="159" x="106" y="56.6611">example workflows</text><rect fill="#FFFFFF" filter="url(#fyufis9ljl5mo)" height="46.2656" style="stroke:#000000;stroke-width:2.0;" width="302" x="10" y="463.5313"/><line style="stroke:#A80036;stroke-width:1.0;stroke-dasharray:5.0,5.0;" x1="78" x2="78" y1="159.2031" y2="599.0625"/><line style="stroke:#A80036;stroke-width:1.0;stroke-dasharray:5.0,5.0;" x1="172.5" x2="172.5" y1="159.2031" y2="599.0625"/><line style="stroke:#A80036;stroke-width:1.0;stroke-dasharray:5.0,5.0;" x1="277" x2="277" y1="159.2031" y2="599.0625"/><text fill="#000000" font-family="sans-serif" font-size="14" lengthAdjust="spacingAndGlyphs" textLength="110" x="20" y="155.9014">Borrower (Issuer)</text><ellipse cx="78" cy="85.9063" fill="#FEFECE" filter="url(#fyufis9ljl5mo)" rx="8" ry="8" style="stroke:#A80036;stroke-width:2.0;"/><path d="M78,93.9063 L78,120.9063 M65,101.9063 L91,101.9063 M78,120.9063 L65,135.9063 M78,120.9063 L91,135.9063 " fill="none" filter="url(#fyufis9ljl5mo)" style="stroke:#A80036;stroke-width:2.0;"/><text fill="#000000" font-family="sans-serif" font-size="14" lengthAdjust="spacingAndGlyphs" textLength="110" x="20" y="611.0576">Borrower (Issuer)</text><ellipse cx="78" cy="624.3594" fill="#FEFECE" filter="url(#fyufis9ljl5mo)" rx="8" ry="8" style="stroke:#A80036;stroke-width:2.0;"/><path d="M78,632.3594 L78,659.3594 M65,640.3594 L91,640.3594 M78,659.3594 L65,674.3594 M78,659.3594 L91,674.3594 " fill="none" filter="url(#fyufis9ljl5mo)" style="stroke:#A80036;stroke-width:2.0;"/><rect fill="#FEFECE" filter="url(#fyufis9ljl5mo)" height="30.2969" style="stroke:#A80036;stroke-width:1.5;" width="47" x="147.5" y="123.9063"/><text fill="#000000" font-family="sans-serif" font-size="14" lengthAdjust="spacingAndGlyphs" textLength="33" x="154.5" y="143.9014">Bond</text><rect fill="#FEFECE" filter="url(#fyufis9ljl5mo)" height="30.2969" style="stroke:#A80036;stroke-width:1.5;" width="47" x="147.5" y="598.0625"/><text fill="#000000" font-family="sans-serif" font-size="14" lengthAdjust="spacingAndGlyphs" textLength="33" x="154.5" y="618.0576">Bond</text><text fill="#000000" font-family="sans-serif" font-size="14" lengthAdjust="spacingAndGlyphs" textLength="44" x="252" y="155.9014">Lender</text><ellipse cx="277" cy="85.9063" fill="#FEFECE" filter="url(#fyufis9ljl5mo)" rx="8" ry="8" style="stroke:#A80036;stroke-width:2.0;"/><path d="M277,93.9063 L277,120.9063 M264,101.9063 L290,101.9063 M277,120.9063 L264,135.9063 M277,120.9063 L290,135.9063 " fill="none" filter="url(#fyufis9ljl5mo)" style="stroke:#A80036;stroke-width:2.0;"/><text fill="#000000" font-family="sans-serif" font-size="14" lengthAdjust="spacingAndGlyphs" textLength="44" x="252" y="611.0576">Lender</text><ellipse cx="277" cy="624.3594" fill="#FEFECE" filter="url(#fyufis9ljl5mo)" rx="8" ry="8" style="stroke:#A80036;stroke-width:2.0;"/><path d="M277,632.3594 L277,659.3594 M264,640.3594 L290,640.3594 M277,659.3594 L264,674.3594 M277,659.3594 L290,674.3594 " fill="none" filter="url(#fyufis9ljl5mo)" style="stroke:#A80036;stroke-width:2.0;"/><rect fill="#EEEEEE" filter="url(#fyufis9ljl5mo)" height="3" style="stroke:#EEEEEE;stroke-width:1.0;" width="372" x="0" y="189.7695"/><line style="stroke:#000000;stroke-width:1.0;" x1="0" x2="372" y1="189.7695" y2="189.7695"/><line style="stroke:#000000;stroke-width:1.0;" x1="0" x2="372" y1="192.7695" y2="192.7695"/><rect fill="#EEEEEE" filter="url(#fyufis9ljl5mo)" height="23.1328" style="stroke:#000000;stroke-width:2.0;" width="69" x="151.5" y="179.2031"/><text fill="#000000" font-family="sans-serif" font-size="13" font-weight="bold" lengthAdjust="spacingAndGlyphs" textLength="55" x="157.5" y="195.27">issuance</text><polygon fill="#A80036" points="161,229.4688,171,233.4688,161,237.4688,165,233.4688" style="stroke:#A80036;stroke-width:1.0;"/><line style="stroke:#A80036;stroke-width:1.0;" x1="78" x2="167" y1="233.4688" y2="233.4688"/><text fill="#000000" font-family="sans-serif" font-size="13" lengthAdjust="spacingAndGlyphs" textLength="71" x="85" y="228.4028">issues bond</text><path d="M178,246.4688 L178,331.4688 L363,331.4688 L363,256.4688 L353,246.4688 L178,246.4688 " fill="#FBFB77" filter="url(#fyufis9ljl5mo)" style="stroke:#A80036;stroke-width:1.0;"/><path d="M353,246.4688 L353,256.4688 L363,256.4688 L353,246.4688 " fill="#FBFB77" style="stroke:#A80036;stroke-width:1.0;"/><ellipse cx="189.5" cy="259.1016" fill="#000000" rx="2.5" ry="2.5" style="stroke:#000000;stroke-width:0.0;"/><text fill="#000000" font-family="sans-serif" font-size="13" lengthAdjust="spacingAndGlyphs" textLength="123" x="195" y="263.5356">face value (par value)</text><ellipse cx="189.5" cy="274.2344" fill="#000000" rx="2.5" ry="2.5" style="stroke:#000000;stroke-width:0.0;"/><text fill="#000000" font-family="sans-serif" font-size="13" lengthAdjust="spacingAndGlyphs" textLength="62" x="195" y="278.6685">issue price</text><ellipse cx="189.5" cy="289.3672" fill="#000000" rx="2.5" ry="2.5" style="stroke:#000000;stroke-width:0.0;"/><text fill="#000000" font-family="sans-serif" font-size="13" lengthAdjust="spacingAndGlyphs" textLength="153" x="195" y="293.8013">coupon rate (interest rate)</text><ellipse cx="189.5" cy="304.5" fill="#000000" rx="2.5" ry="2.5" style="stroke:#000000;stroke-width:0.0;"/><text fill="#000000" font-family="sans-serif" font-size="13" lengthAdjust="spacingAndGlyphs" textLength="81" x="195" y="308.9341">coupon dates</text><ellipse cx="189.5" cy="319.6328" fill="#000000" rx="2.5" ry="2.5" style="stroke:#000000;stroke-width:0.0;"/><text fill="#000000" font-family="sans-serif" font-size="13" lengthAdjust="spacingAndGlyphs" textLength="77" x="195" y="324.0669">maturity date</text><rect fill="#EEEEEE" filter="url(#fyufis9ljl5mo)" height="3" style="stroke:#EEEEEE;stroke-width:1.0;" width="372" x="0" y="361.6992"/><line style="stroke:#000000;stroke-width:1.0;" x1="0" x2="372" y1="361.6992" y2="361.6992"/><line style="stroke:#000000;stroke-width:1.0;" x1="0" x2="372" y1="364.6992" y2="364.6992"/><rect fill="#EEEEEE" filter="url(#fyufis9ljl5mo)" height="23.1328" style="stroke:#000000;stroke-width:2.0;" width="87" x="142.5" y="351.1328"/><text fill="#000000" font-family="sans-serif" font-size="13" font-weight="bold" lengthAdjust="spacingAndGlyphs" textLength="73" x="148.5" y="367.1997">investment</text><polygon fill="#A80036" points="89,401.3984,79,405.3984,89,409.3984,85,405.3984" style="stroke:#A80036;stroke-width:1.0;"/><line style="stroke:#A80036;stroke-width:1.0;" x1="83" x2="276" y1="405.3984" y2="405.3984"/><text fill="#000000" font-family="sans-serif" font-size="13" lengthAdjust="spacingAndGlyphs" textLength="175" x="95" y="400.3325">purchases bond at issue price</text><rect fill="#EEEEEE" filter="url(#fyufis9ljl5mo)" height="3" style="stroke:#EEEEEE;stroke-width:1.0;" width="372" x="0" y="433.9648"/><line style="stroke:#000000;stroke-width:1.0;" x1="0" x2="372" y1="433.9648" y2="433.9648"/><line style="stroke:#000000;stroke-width:1.0;" x1="0" x2="372" y1="436.9648" y2="436.9648"/><rect fill="#EEEEEE" filter="url(#fyufis9ljl5mo)" height="23.1328" style="stroke:#000000;stroke-width:2.0;" width="63" x="154.5" y="423.3984"/><text fill="#000000" font-family="sans-serif" font-size="13" font-weight="bold" lengthAdjust="spacingAndGlyphs" textLength="49" x="160.5" y="439.4653">running</text><path d="M10,463.5313 L83,463.5313 L83,470.5313 L73,480.5313 L10,480.5313 L10,463.5313 " fill="#EEEEEE" style="stroke:#000000;stroke-width:1.0;"/><rect fill="none" height="46.2656" style="stroke:#000000;stroke-width:2.0;" width="302" x="10" y="463.5313"/><text fill="#000000" font-family="sans-serif" font-size="13" font-weight="bold" lengthAdjust="spacingAndGlyphs" textLength="28" x="25" y="476.5981">loop</text><polygon fill="#A80036" points="265,497.7969,275,501.7969,265,505.7969,269,501.7969" style="stroke:#A80036;stroke-width:1.0;"/><line style="stroke:#A80036;stroke-width:1.0;" x1="78" x2="271" y1="501.7969" y2="501.7969"/><text fill="#000000" font-family="sans-serif" font-size="13" lengthAdjust="spacingAndGlyphs" textLength="100" x="85" y="496.731">coupon payment</text><rect fill="#EEEEEE" filter="url(#fyufis9ljl5mo)" height="3" style="stroke:#EEEEEE;stroke-width:1.0;" width="372" x="0" y="537.3633"/><line style="stroke:#000000;stroke-width:1.0;" x1="0" x2="372" y1="537.3633" y2="537.3633"/><line style="stroke:#000000;stroke-width:1.0;" x1="0" x2="372" y1="540.3633" y2="540.3633"/><rect fill="#EEEEEE" filter="url(#fyufis9ljl5mo)" height="23.1328" style="stroke:#000000;stroke-width:2.0;" width="71" x="150.5" y="526.7969"/><text fill="#000000" font-family="sans-serif" font-size="13" font-weight="bold" lengthAdjust="spacingAndGlyphs" textLength="57" x="156.5" y="542.8638">maturity</text><polygon fill="#A80036" points="265,577.0625,275,581.0625,265,585.0625,269,581.0625" style="stroke:#A80036;stroke-width:1.0;"/><line style="stroke:#A80036;stroke-width:1.0;" x1="78" x2="271" y1="581.0625" y2="581.0625"/><text fill="#000000" font-family="sans-serif" font-size="13" lengthAdjust="spacingAndGlyphs" textLength="120" x="85" y="575.9966">par value repayment</text><!--MD5=[18a9880d221cd934e0027b743856ddf1]
@startuml

skinparam titleBorderRoundCorner 15
skinparam titleBorderThickness 2
skinparam titleBorderColor red
title Bond\nexample workflows

actor "Borrower (Issuer)" as Borrower
participant Bond
actor Lender

==issuance==
Borrower -> Bond: issues bond
note right of Bond
* face value (par value)
* issue price
* coupon rate (interest rate)
* coupon dates
* maturity date
end note

==investment==
Lender -> Borrower: purchases bond at issue price

==running== 
loop
Borrower -> Lender: coupon payment
end loop

==maturity== 
Borrower -> Lender: par value repayment

@enduml

PlantUML version 1.2020.23(Sun Dec 13 19:14:58 GMT 2020)
(GPL source distribution)
Java Runtime: OpenJDK Runtime Environment
JVM: OpenJDK 64-Bit Server VM
Default Encoding: UTF-8
Language: en
Country: US
--></g></svg>